{"title":"Meraviglioso.Boccaccio.2015.DVDRip.x264.HORiZON-ArtSubs","uid":13134326,"size":1677331748,"categoryP":"video","categoryS":"movies","magnet":"?xt=urn:btih:4967d5977e9f2e733e73b06952f47ed1ce6bd185&amp;dn=Meraviglioso.Boccaccio.2015.DVDRip.x264.HORiZON-ArtSubs&amp;tr=udp%3A%2F%2Ftracker.leechers-paradise.org%3A6969&amp;tr=udp%3A%2F%2Fzer0day.ch%3A1337&amp;tr=udp%3A%2F%2Fopen.demonii.com%3A1337&amp;tr=udp%3A%2F%2Ftracker.coppersurfer.tk%3A6969&amp;tr=udp%3A%2F%2Fexodus.desync.com%3A6969","seeders":4,"leechers":0,"uploader":"noriegaRJ","files":1,"time":1451881183,"description":"Title: Maraviglioso Boccaccio aka Wondrous Boccaccio\r\n\r\nRelease: Meraviglioso.Boccaccio.2015.DVDRip.x264.HORiZON-ArtSubs\r\n\r\n\r\nIMDB Link:                                                       \nhttp://www.imdb.com/title/tt3596952/\r\n\r\n\r\nPlot: Florence, Thirteenth Century. The &quot;Black Death&quot; is spreading. Ten kids (three boys and seven girls) decide to escape and to seek shelter in the countryside, away from the horrible consequences of the plague. In order to kill time, each kid tells a particular story, but no matter how different their stories may be, they all have one aspect in common: love. A love that will help the characters cope with the numerous uncertainties of a very arduous age.\r\n\r\n\r\nITALIAN SUBTITLE IN MKV CONTAINER.\r\n\r\n\r\n\r\nGeneral\r\nComplete name                            : Meraviglioso.Boccaccio.2015.DVDRip.x264.HORiZON-ArtSubs\r\nFormat                                   : Matroska\r\nFormat version                           : Version 2\r\nFile size                                : 1.56 GiB\r\nDuration                                 : 1h 55mn\r\nOverall bit rate                         : 1 932 Kbps\r\nWriting application                      : HandBrake 0.9.5\r\nWriting library                          : libmkv 0.6.4.1\r\n\r\nVideo\r\nID                                       : 1\r\nFormat                                   : AVC\r\nFormat/Info                              : Advanced Video Codec\r\nFormat profile                           :   \r\nFormat settings, CABAC                   : Yes\r\nFormat settings, ReFrames                : 4 frames\r\nCodec ID                                 : V_MPEG4/ISO/AVC\r\nDuration                                 : 1h 55mn\r\nBit rate                                 : 1 481 Kbps\r\nWidth                                    : 720 pixels\r\nHeight                                   : 544 pixels\r\nDisplay aspect ratio                     : 1.85:1\r\nFrame rate mode                          : Constant\r\nFrame rate                               : 25.000 fps\r\nColor space                              : YUV\r\nChroma subsampling                       : 4:2:0\r\nBit depth                                : 8 bits\r\nScan type                                : Progressive\r\nBits/(Pixel*Frame)                       : 0.151\r\nStream size                              : 1.17 GiB (75%)\r\nWriting library                          : x264 core 112\r\nLanguage                                 : English\r\nDefault                                  : Yes\r\nForced                                   : No\r\nColor primaries                          : BT.601 NTSC\r\nTransfer characteristics                 : BT.709\r\nMatrix coefficients                      : BT.601\r\n\r\nAudio\r\nID                                       : 2\r\nFormat                                   : AC-3\r\nFormat/Info                              : Audio Coding 3\r\nMode extension                           : CM (complete main)\r\nFormat settings, Endianness              : Big\r\nCodec ID                                 : A_AC3\r\nDuration                                 : 1h 55mn\r\nBit rate mode                            : Constant\r\nBit rate                                 : 448 Kbps\r\nChannel count                            : 6 channels\r\nChannel positions                        : Front: L C R, Side: L R, LFE\r\nSampling rate                            : 48.0 KHz\r\nBit depth                                : 16 bits\r\nCompression mode                         : Lossy\r\nStream size                              : 371 MiB (23%)\r\nLanguage                                 : Italian\r\nDefault                                  : Yes\r\nForced                                   : No\r\n\r\nText\r\nID                                       : 3\r\nFormat                                   : VobSub\r\nCodec ID                                 : S_VOBSUB\r\nCodec ID/Info                            : The same subtitle format used on DVDs\r\nLanguage                                 : Italian\r\nDefault                                  : No\r\nForced                                   : No\r\n\r\n\r\n\r\nThanks to those helping me seed. Leechers remember, the community depends on you. If nobody shares, the freebies go away. Remember, the only reason you can download this free movie is because others are generous enough to keep sharing it with you. If nobody shares, everybody loses, so even if its for an extra hour or two after you get it, remember, others want to see it too, and they can't without you.\r\n\r\n\r\nSEE MY OTHERS UPLOADS:                                                                               \nhttp://thepiratebay.se/user/noriegaRJ\r\n\r\nAND SEE THIS ANOTHERS UPLOADS FROM &quot;HORiZON-ArtSubs&quot;:                               \nhttp://thepiratebay.se/user/artsubs                               \nhttp://thepiratebay.se/user/lletaif","torrent":{"xt":"urn:btih:4967d5977e9f2e733e73b06952f47ed1ce6bd185","amp;dn":"Meraviglioso.Boccaccio.2015.DVDRip.x264.HORiZON-ArtSubs","amp;tr":["udp%3A%2F%2Ftracker.leechers-paradise.org%3A6969","udp%3A%2F%2Fzer0day.ch%3A1337","udp%3A%2F%2Fopen.demonii.com%3A1337","udp%3A%2F%2Ftracker.coppersurfer.tk%3A6969","udp%3A%2F%2Fexodus.desync.com%3A6969"],"infoHash":"4967d5977e9f2e733e73b06952f47ed1ce6bd185","infoHashBuffer":{"type":"Buffer","data":[73,103,213,151,126,159,46,115,62,115,176,105,82,244,126,209,206,107,209,133]},"announce":[],"urlList":[]}}